<svg xmlns="http://www.w3.org/2000/svg" width="151" height="28" viewBox="0 0 151 28">
  <g fill="none" fill-rule="evenodd">
    <g transform="translate(47)">
      <path fill="#19B13B" d="M0,27 L0,10 L5.60089044,10 C7.46001884,10 8.85826637,10.3814064 9.79567499,11.1442308 C10.7330836,11.9070551 11.2017809,13.0357068 11.2017809,14.5302198 C11.2017809,15.3241798 10.974296,16.0266682 10.5193194,16.637706 C10.0643429,17.2487439 9.44464271,17.72161 8.66020035,18.0563187 C9.58584233,18.3131881 10.3173239,18.8016219 10.8546669,19.5216346 C11.3920099,20.2416474 11.6606774,21.0998119 11.6606774,22.0961538 C11.6606774,23.6218025 11.1625639,24.8205085 10.1663221,25.6923077 C9.17008035,26.5641069 7.76202744,27 5.94212116,27 L0,27 Z M2.2591827,19.0487637 L2.2591827,25.1668956 L5.98918747,25.1668956 C7.04034023,25.1668956 7.86987558,24.8964084 8.47781841,24.3554258 C9.08576124,23.8144433 9.3897281,23.0691439 9.3897281,22.1195055 C9.3897281,20.0723341 8.26799235,19.0487637 6.0244872,19.0487637 L2.2591827,19.0487637 Z M2.2591827,17.2506868 L5.6714899,17.2506868 C6.65988728,17.2506868 7.4502011,17.005497 8.04245508,16.5151099 C8.63470906,16.0247228 8.93083161,15.3592075 8.93083161,14.518544 C8.93083161,13.5844734 8.6562809,12.9053364 8.10717125,12.4811126 C7.5580616,12.0568889 6.72264302,11.8447802 5.60089044,11.8447802 L2.2591827,11.8447802 L2.2591827,17.2506868 Z M17.2733344,25.1668956 L25.3922722,25.1668956 L25.3922722,27 L15.0023851,27 L15.0023851,10 L17.2733344,10 L17.2733344,25.1668956 Z M37.42948,22.5631868 L30.2518683,22.5631868 L28.6398474,27 L26.3100652,27 L32.8522818,10 L34.8290666,10 L41.3830498,27 L39.0650342,27 L37.42948,22.5631868 Z M30.9343298,20.7184066 L36.7587852,20.7184066 L33.8406742,12.7671703 L30.9343298,20.7184066 Z M56.8560979,27 L54.5851487,27 L45.9602481,13.8997253 L45.9602481,27 L43.6892988,27 L43.6892988,10 L45.9602481,10 L54.6086818,23.1586538 L54.6086818,10 L56.8560979,10 L56.8560979,27 Z M65.2221339,19.095467 L63.1276833,21.2554945 L63.1276833,27 L60.8685006,27 L60.8685006,10 L63.1276833,10 L63.1276833,18.4065934 L70.7406583,10 L73.4705041,10 L66.7282557,17.5075549 L74,27 L71.2936874,27 L65.2221339,19.095467 Z"/>
      <rect width="29" height="15" x="75" fill="#19B13B"/>
      <path fill="#FFF" d="M88.1738035,10.9064171 L83.1460957,10.9064171 L83.1460957,9.97994652 L85.5188917,7.63101604 C85.84467,7.30035485 86.0856415,7.0118105 86.2418136,6.76537433 C86.3979857,6.51893816 86.4760705,6.28498328 86.4760705,6.06350267 C86.4760705,5.76091649 86.3937876,5.52306236 86.2292191,5.34993316 C86.0646507,5.17680395 85.8295565,5.09024064 85.5239295,5.09024064 C85.1947926,5.09024064 84.9353494,5.19552034 84.7455919,5.40608289 C84.5558345,5.61664544 84.4609572,5.89349205 84.4609572,6.23663102 L83,6.23663102 C83,5.82174481 83.106632,5.4427379 83.3198992,5.09959893 C83.5331665,4.75645996 83.8345908,4.48741185 84.2241814,4.29244652 C84.6137719,4.0974812 85.0554131,4 85.5491184,4 C86.3047897,4 86.8916856,4.16844751 87.3098237,4.50534759 C87.7279618,4.84224767 87.9370277,5.31795593 87.9370277,5.93248663 C87.9370277,6.26938671 87.84299,6.61252053 87.6549118,6.9618984 C87.4668337,7.31127626 87.1444187,7.71835775 86.6876574,8.18315508 L85.0201511,9.81617647 L88.1738035,9.81617647 L88.1738035,10.9064171 Z M89.2015113,10.2419786 C89.2015113,10.0267369 89.2795962,9.85205058 89.4357683,9.71791444 C89.5919403,9.5837783 89.7875723,9.51671123 90.02267,9.51671123 C90.2611263,9.51671123 90.4584375,9.5837783 90.6146096,9.71791444 C90.7707816,9.85205058 90.8488665,10.0267369 90.8488665,10.2419786 C90.8488665,10.4541009 90.7716213,10.6264476 90.6171285,10.7590241 C90.4626357,10.8916005 90.2644848,10.9578877 90.02267,10.9578877 C89.7842138,10.9578877 89.5877422,10.8916005 89.4332494,10.7590241 C89.2787566,10.6264476 89.2015113,10.4541009 89.2015113,10.2419786 Z M97,8.08957219 C97,9.03164464 96.7900945,9.75222567 96.3702771,10.2513369 C95.9504597,10.7504481 95.3358563,11 94.5264484,11 C93.7271161,11 93.1158711,10.7551272 92.6926952,10.2653743 C92.2695193,9.77562144 92.0528968,9.0737568 92.0428212,8.15975936 L92.0428212,6.90574866 C92.0428212,5.95431788 92.2552456,5.23217715 92.6801008,4.73930481 C93.1049559,4.24643247 93.7170405,4 94.5163728,4 C95.3157051,4 95.92695,4.24409292 96.3501259,4.7322861 C96.7733019,5.22047927 96.9899244,5.92156406 97,6.8355615 L97,8.08957219 Z M95.5440806,6.71390374 C95.5440806,6.14928416 95.460958,5.73830343 95.2947103,5.4809492 C95.1284626,5.22359497 94.8690194,5.09491979 94.5163728,5.09491979 C94.1738018,5.09491979 93.9210755,5.21735617 93.7581864,5.46223262 C93.5952973,5.70710907 93.5088162,6.09001522 93.4987406,6.61096257 L93.4987406,8.26737968 C93.4987406,8.82264092 93.5801839,9.23518136 93.743073,9.50501337 C93.9059622,9.77484538 94.1670847,9.90975936 94.5264484,9.90975936 C94.8824535,9.90975936 95.1393779,9.78030432 95.2972292,9.52139037 C95.4550806,9.26247642 95.5373635,8.86631283 95.5440806,8.3328877 L95.5440806,6.71390374 Z"/>
    </g>
    <path fill="#394A5C" d="M9.12890625 9.9375L11.390625 9.9375 11.390625 22.0195312C11.390625 23.6523519 10.9003955 24.9296829 9.91992188 25.8515625 8.93944822 26.7734421 7.63282066 27.234375 6 27.234375 4.30467902 27.234375 2.98437973 26.8007856 2.0390625 25.9335938 1.09374527 25.0664019.62109375 23.8515703.62109375 22.2890625L2.87109375 22.2890625C2.87109375 23.2656299 3.1386692 24.027341 3.67382812 24.5742188 4.20898705 25.1210965 4.98436992 25.3945312 6 25.3945312 6.92969215 25.3945312 7.68163775 25.1015654 8.25585937 24.515625 8.830081 23.9296846 9.12109371 23.1093803 9.12890625 22.0546875L9.12890625 9.9375zM20.25 19.3945312C18.3203029 18.839841 16.91602 18.1582072 16.0371094 17.3496094 15.1581987 16.5410116 14.71875 15.5429747 14.71875 14.3554688 14.71875 13.011712 15.255854 11.900395 16.3300781 11.0214844 17.4043022 10.1425737 18.8007727 9.703125 20.5195312 9.703125 21.6914121 9.703125 22.7363235 9.92968523 23.6542969 10.3828125 24.5722702 10.8359398 25.2832006 11.4609335 25.7871094 12.2578125 26.2910181 13.0546915 26.5429688 13.9257765 26.5429688 14.8710938L24.28125 14.8710938C24.28125 13.8398386 23.9531283 13.0292998 23.296875 12.4394531 22.6406217 11.8496064 21.7148497 11.5546875 20.5195312 11.5546875 19.4101507 11.5546875 18.544925 11.7988257 17.9238281 12.2871094 17.3027313 12.7753931 16.9921875 13.4531207 16.9921875 14.3203125 16.9921875 15.0156285 17.2871064 15.6035132 17.8769531 16.0839844 18.4667998 16.5644555 19.470696 17.0039043 20.8886719 17.4023438 22.3066477 17.8007832 23.4160116 18.240232 24.2167969 18.7207031 25.0175821 19.2011743 25.6113262 19.7617155 25.9980469 20.4023438 26.3847676 21.042972 26.578125 21.7968707 26.578125 22.6640625 26.578125 24.0468819 26.0390679 25.1542927 24.9609375 25.9863281 23.8828071 26.8183635 22.4414153 27.234375 20.6367188 27.234375 19.4648379 27.234375 18.3710988 27.0097679 17.3554688 26.5605469 16.3398387 26.1113259 15.5566434 25.4960977 15.0058594 24.7148438 14.4550754 23.9335898 14.1796875 23.04688 14.1796875 22.0546875L16.4414062 22.0546875C16.4414062 23.0859427 16.8222618 23.9003876 17.5839844 24.4980469 18.3457069 25.0957061 19.3632749 25.3945312 20.6367188 25.3945312 21.8242247 25.3945312 22.7343718 25.1523462 23.3671875 24.6679688 24.0000032 24.1835913 24.3164062 23.5234417 24.3164062 22.6875 24.3164062 21.8515583 24.0234404 21.2050804 23.4375 20.7480469 22.8515596 20.2910133 21.7890702 19.839846 20.25 19.3945312z"/>
    <polygon fill="#394A5C" points="42.574 27 40.313 27 31.723 13.852 31.723 27 29.461 27 29.461 9.938 31.723 9.938 40.336 23.145 40.336 9.938 42.574 9.938"/>
  </g>
</svg>
