<svg xmlns="http://www.w3.org/2000/svg" width="151" height="28" viewBox="0 0 151 28">
  <g fill="none" fill-rule="evenodd">
    <path fill="#394A5C" d="M9.12890625,9.9375 L11.390625,9.9375 L11.390625,22.0195312 C11.390625,23.6523519 10.9003955,24.9296829 9.91992188,25.8515625 C8.93944822,26.7734421 7.63282066,27.234375 6,27.234375 C4.30467902,27.234375 2.98437973,26.8007856 2.0390625,25.9335938 C1.09374527,25.0664019 0.62109375,23.8515703 0.62109375,22.2890625 L2.87109375,22.2890625 C2.87109375,23.2656299 3.1386692,24.027341 3.67382812,24.5742188 C4.20898705,25.1210965 4.98436992,25.3945312 6,25.3945312 C6.92969215,25.3945312 7.68163775,25.1015654 8.25585938,24.515625 C8.830081,23.9296846 9.12109371,23.1093803 9.12890625,22.0546875 L9.12890625,9.9375 Z M20.25,19.3945312 C18.3203029,18.839841 16.91602,18.1582072 16.0371094,17.3496094 C15.1581987,16.5410116 14.71875,15.5429747 14.71875,14.3554688 C14.71875,13.011712 15.255854,11.900395 16.3300781,11.0214844 C17.4043022,10.1425737 18.8007727,9.703125 20.5195312,9.703125 C21.6914121,9.703125 22.7363235,9.92968523 23.6542969,10.3828125 C24.5722702,10.8359398 25.2832006,11.4609335 25.7871094,12.2578125 C26.2910181,13.0546915 26.5429688,13.9257765 26.5429688,14.8710938 L24.28125,14.8710938 C24.28125,13.8398386 23.9531283,13.0292998 23.296875,12.4394531 C22.6406217,11.8496064 21.7148497,11.5546875 20.5195312,11.5546875 C19.4101507,11.5546875 18.544925,11.7988257 17.9238281,12.2871094 C17.3027313,12.7753931 16.9921875,13.4531207 16.9921875,14.3203125 C16.9921875,15.0156285 17.2871064,15.6035132 17.8769531,16.0839844 C18.4667998,16.5644555 19.470696,17.0039043 20.8886719,17.4023438 C22.3066477,17.8007832 23.4160116,18.240232 24.2167969,18.7207031 C25.0175821,19.2011743 25.6113262,19.7617155 25.9980469,20.4023438 C26.3847676,21.042972 26.578125,21.7968707 26.578125,22.6640625 C26.578125,24.0468819 26.0390679,25.1542927 24.9609375,25.9863281 C23.8828071,26.8183635 22.4414153,27.234375 20.6367188,27.234375 C19.4648379,27.234375 18.3710988,27.0097679 17.3554688,26.5605469 C16.3398387,26.1113259 15.5566434,25.4960977 15.0058594,24.7148438 C14.4550754,23.9335898 14.1796875,23.04688 14.1796875,22.0546875 L16.4414062,22.0546875 C16.4414062,23.0859427 16.8222618,23.9003876 17.5839844,24.4980469 C18.3457069,25.0957061 19.3632749,25.3945312 20.6367188,25.3945312 C21.8242247,25.3945312 22.7343718,25.1523462 23.3671875,24.6679688 C24.0000032,24.1835913 24.3164062,23.5234417 24.3164062,22.6875 C24.3164062,21.8515583 24.0234404,21.2050804 23.4375,20.7480469 C22.8515596,20.2910133 21.7890702,19.839846 20.25,19.3945312 Z M42.5742188,27 L40.3125,27 L31.7226562,13.8515625 L31.7226562,27 L29.4609375,27 L29.4609375,9.9375 L31.7226562,9.9375 L40.3359375,23.1445312 L40.3359375,9.9375 L42.5742188,9.9375 L42.5742188,27 Z"/>
    <rect width="29" height="15" x="122" fill="#00A0FF"/>
    <path fill="#FFF" d="M135.356445,11 L130.483398,11 L130.483398,10.0332031 L132.783203,7.58203125 C133.09896,7.23697744 133.332519,6.93587368 133.483887,6.67871094 C133.635255,6.42154819 133.710938,6.17741001 133.710938,5.94628906 C133.710938,5.63053228 133.631186,5.38232512 133.47168,5.20166016 C133.312174,5.02099519 133.084311,4.93066406 132.788086,4.93066406 C132.469074,4.93066406 132.217612,5.04052625 132.033691,5.26025391 C131.849771,5.47998157 131.757812,5.76887842 131.757812,6.12695312 L130.341797,6.12695312 C130.341797,5.69400825 130.445149,5.29850439 130.651855,4.94042969 C130.858562,4.58235498 131.150714,4.30159607 131.52832,4.09814453 C131.905926,3.89469299 132.333982,3.79296875 132.8125,3.79296875 C133.544926,3.79296875 134.113768,3.96874824 134.519043,4.3203125 C134.924318,4.67187676 135.126953,5.16829106 135.126953,5.80957031 C135.126953,6.16113457 135.035808,6.51920391 134.853516,6.88378906 C134.671223,7.24837422 134.358726,7.67317466 133.916016,8.15820312 L132.299805,9.86230469 L135.356445,9.86230469 L135.356445,11 Z M136.352539,10.3066406 C136.352539,10.0820301 136.428222,9.89974028 136.57959,9.75976562 C136.730958,9.61979097 136.920572,9.54980469 137.148438,9.54980469 C137.379558,9.54980469 137.5708,9.61979097 137.722168,9.75976562 C137.873536,9.89974028 137.949219,10.0820301 137.949219,10.3066406 C137.949219,10.5279959 137.87435,10.7078444 137.724609,10.8461914 C137.574869,10.9845385 137.382814,11.0537109 137.148438,11.0537109 C136.917317,11.0537109 136.726889,10.9845385 136.577148,10.8461914 C136.427408,10.7078444 136.352539,10.5279959 136.352539,10.3066406 Z M143.911133,8.06054688 C143.911133,9.04362471 143.707684,9.79557031 143.300781,10.3164062 C142.893878,10.8372422 142.298181,11.0976562 141.513672,11.0976562 C140.738928,11.0976562 140.146486,10.842125 139.736328,10.3310547 C139.32617,9.81998442 139.116211,9.08756987 139.106445,8.13378906 L139.106445,6.82519531 C139.106445,5.83235181 139.312335,5.07877861 139.724121,4.56445312 C140.135907,4.05012764 140.729163,3.79296875 141.503906,3.79296875 C142.27865,3.79296875 142.871092,4.04768625 143.28125,4.55712891 C143.691408,5.06657156 143.901367,5.79817231 143.911133,6.75195312 L143.911133,8.06054688 Z M142.5,6.625 C142.5,6.03580435 142.419434,5.60693494 142.258301,5.33837891 C142.097167,5.06982288 141.845705,4.93554688 141.503906,4.93554688 C141.171873,4.93554688 140.926921,5.06331252 140.769043,5.31884766 C140.611165,5.57438279 140.527344,5.97395562 140.517578,6.51757812 L140.517578,8.24609375 C140.517578,8.82552373 140.596516,9.25602073 140.754395,9.53759766 C140.912273,9.81917458 141.165363,9.95996094 141.513672,9.95996094 C141.858726,9.95996094 142.107747,9.82487114 142.260742,9.5546875 C142.413738,9.28450386 142.49349,8.87109653 142.5,8.31445312 L142.5,6.625 Z"/>
    <path fill="#00A0FF" d="M45.9804688,27 L45.9804688,9.9375 L51.5585938,9.9375 C53.4101655,9.9375 54.8027297,10.3203087 55.7363281,11.0859375 C56.6699265,11.8515663 57.1367188,12.9843675 57.1367188,14.484375 C57.1367188,15.281254 56.9101585,15.9863251 56.4570312,16.5996094 C56.003904,17.2128937 55.3867227,17.6874983 54.6054688,18.0234375 C55.5273484,18.2812513 56.2558567,18.7714808 56.7910156,19.4941406 C57.3261746,20.2168005 57.59375,21.07812 57.59375,22.078125 C57.59375,23.6093827 57.0976612,24.8124956 56.1054688,25.6875 C55.1132763,26.5625044 53.7109466,27 51.8984375,27 L45.9804688,27 Z M48.2304688,19.0195312 L48.2304688,25.1601562 L51.9453125,25.1601562 C52.9921927,25.1601562 53.8183563,24.8886746 54.4238281,24.3457031 C55.0292999,23.8027317 55.3320312,23.0546923 55.3320312,22.1015625 C55.3320312,20.0468647 54.2148549,19.0195312 51.9804688,19.0195312 L48.2304688,19.0195312 Z M48.2304688,17.2148438 L51.6289062,17.2148438 C52.6132862,17.2148438 53.4003877,16.9687525 53.9902344,16.4765625 C54.5800811,15.9843725 54.875,15.3164105 54.875,14.4726562 C54.875,13.5351516 54.6015652,12.8535178 54.0546875,12.4277344 C53.5078098,12.001951 52.6757868,11.7890625 51.5585938,11.7890625 L48.2304688,11.7890625 L48.2304688,17.2148438 Z M63.1835938,25.1601562 L71.2695312,25.1601562 L71.2695312,27 L60.921875,27 L60.921875,9.9375 L63.1835938,9.9375 L63.1835938,25.1601562 Z M83.2578125,22.546875 L76.109375,22.546875 L74.5039062,27 L72.1835938,27 L78.6992188,9.9375 L80.6679688,9.9375 L87.1953125,27 L84.8867188,27 L83.2578125,22.546875 Z M76.7890625,20.6953125 L82.5898438,20.6953125 L79.6835938,12.7148438 L76.7890625,20.6953125 Z M102.605469,27 L100.34375,27 L91.7539062,13.8515625 L91.7539062,27 L89.4921875,27 L89.4921875,9.9375 L91.7539062,9.9375 L100.367188,23.1445312 L100.367188,9.9375 L102.605469,9.9375 L102.605469,27 Z M110.9375,19.0664062 L108.851562,21.234375 L108.851562,27 L106.601562,27 L106.601562,9.9375 L108.851562,9.9375 L108.851562,18.375 L116.433594,9.9375 L119.152344,9.9375 L112.4375,17.4726562 L119.679688,27 L116.984375,27 L110.9375,19.0664062 Z"/>
  </g>
</svg>
